<svg width="18" height="16" viewBox="0 0 18 16" fill="none" xmlns="http://www.w3.org/2000/svg">
<path d="M11.7028 0.787613L11.7028 0.787607C12.2433 0.584242 12.823 0.486662 13.4063 0.501464C13.9895 0.51627 14.5626 0.643116 15.0903 0.873432L15.2901 0.415699L15.0903 0.873433C15.6179 1.10366 16.0881 1.43202 16.4734 1.83696L16.4738 1.83742C17.5686 2.98522 17.7557 4.58822 17.187 5.96527C16.4562 7.73468 15.0432 9.38378 13.4979 10.9596L13.4979 10.9596C12.9546 11.5137 12.4047 12.0496 11.863 12.5776C11.8628 12.5778 11.8625 12.578 11.8623 12.5782L11.862 12.5785L11.8521 12.5881C10.8429 13.5717 9.85674 14.5329 9.03818 15.4978C9.03813 15.4978 9.03809 15.4978 9.03804 15.4978C9.0364 15.4986 9.0333 15.4997 9.02898 15.4999L9.0288 15.5C9.02451 15.5002 9.02074 15.4995 9.018 15.4985C9.01676 15.4981 9.01603 15.4977 9.0157 15.4975C8.83776 15.3324 8.65368 15.1624 8.46522 14.9884L8.46481 14.988L8.12559 15.3554L8.46481 14.988L8.43443 14.96L8.4344 14.9599C7.18991 13.8109 5.74869 12.4799 4.42793 11.0673C2.89286 9.42554 1.52042 7.67392 0.79894 5.96493L0.798938 5.96492C0.587088 5.46312 0.486189 4.927 0.501518 4.38888C0.516847 3.85074 0.64814 3.32018 0.888487 2.82936C1.12884 2.33853 1.47366 1.89689 1.90363 1.53237L1.9041 1.53197C3.62513 0.0691902 6.32638 0.299783 7.95983 1.84184L7.95984 1.84184L8.68395 2.52542L9.02718 2.84945L9.37042 2.52541L10.2651 1.68082C10.6734 1.29539 11.1623 0.990958 11.7028 0.787613Z" stroke="white"/>
</svg>
