<svg width="44" height="45" viewBox="0 0 44 45" fill="none" xmlns="http://www.w3.org/2000/svg">
<path fill-rule="evenodd" clip-rule="evenodd" d="M23.2314 4.19195C22.5691 3.36682 21.3132 3.36683 20.651 4.19194L9.77553 17.7417C9.2036 18.4542 8.16231 18.5683 7.44974 17.9963C6.73717 17.4244 6.62316 16.3831 7.19509 15.6705L18.0705 2.1208C20.0573 -0.354561 23.8251 -0.354554 25.8119 2.1208L36.6873 15.6705C37.2592 16.3831 37.1452 17.4244 36.4326 17.9963C35.7201 18.5683 34.6788 18.4542 34.1069 17.7417L23.2314 4.19195Z" fill="#373737"/>
<path fill-rule="evenodd" clip-rule="evenodd" d="M34.8627 18.6914H9.01964C5.42369 18.6914 2.7897 22.0775 3.67446 25.5629L6.47423 36.5924C7.09502 39.0379 9.29632 40.7502 11.8194 40.7502H32.0629C34.586 40.7502 36.7873 39.0379 37.4081 36.5924L40.2078 25.563C41.0926 22.0775 38.4586 18.6914 34.8627 18.6914ZM9.01964 15.3826C3.26613 15.3826 -0.94826 20.8004 0.467349 26.377L3.26713 37.4065C4.26039 41.3193 7.78247 44.059 11.8194 44.059H32.0629C36.0998 44.059 39.6219 41.3193 40.6152 37.4065L43.4149 26.3771C44.8305 20.8004 40.6162 15.3826 34.8627 15.3826H9.01964Z" fill="#373737"/>
<path fill-rule="evenodd" clip-rule="evenodd" d="M29.9463 24.7828C30.8461 24.9414 31.4469 25.7995 31.2882 26.6993L29.7324 35.5229C29.5738 36.4227 28.7157 37.0235 27.8159 36.8649C26.916 36.7062 26.3152 35.8481 26.4739 34.9483L28.0297 26.1248C28.1884 25.2249 29.0464 24.6241 29.9463 24.7828Z" fill="#373737"/>
<path fill-rule="evenodd" clip-rule="evenodd" d="M13.9332 24.7828C13.0334 24.9414 12.4325 25.7995 12.5912 26.6993L14.147 35.5229C14.3057 36.4227 15.1638 37.0235 16.0636 36.8649C16.9634 36.7062 17.5643 35.8481 17.4056 34.9483L15.8498 26.1248C15.6911 25.2249 14.833 24.6241 13.9332 24.7828Z" fill="#373737"/>
</svg>
