<svg width="47" height="42" viewBox="0 0 47 42" fill="none" xmlns="http://www.w3.org/2000/svg">
<path d="M30.6282 2.24205L30.6282 2.24203C32.0153 1.71738 33.5031 1.46558 35.0001 1.50378C36.497 1.54198 37.9678 1.86929 39.3221 2.46343L39.9247 1.08982L39.3221 2.46344C40.6759 3.05736 41.8822 3.90428 42.8702 4.94838L42.8715 4.94976C45.6731 7.90276 46.1578 12.0325 44.6963 15.5899C42.8026 20.1992 39.1357 24.5062 35.1029 28.6404L35.1029 28.6405C33.6853 30.0938 32.2505 31.4997 30.8352 32.8864L30.8346 32.8871L30.8338 32.8879L30.8331 32.8885L30.8049 32.9162C28.2167 35.452 25.6788 37.9386 23.5572 40.4354C23.1294 40.0367 22.6886 39.6274 22.2384 39.2094L22.1581 39.1349L22.158 39.1348C18.9078 36.1178 15.1497 32.6285 11.7065 28.9265C7.70269 24.6216 4.13735 20.0431 2.26636 15.5876L2.26635 15.5876C1.72323 14.2943 1.4646 12.9126 1.50389 11.5259C1.54319 10.1391 1.87973 8.77178 2.49595 7.5067C3.11218 6.24159 3.99641 5.10296 5.09932 4.16295L5.10075 4.16173C9.50786 0.396008 16.4454 0.980172 20.6476 4.96844L20.6477 4.96845L22.5384 6.76284L23.571 7.74283L24.6036 6.76282L26.9396 4.54577C26.9396 4.54575 26.9396 4.54572 26.9396 4.5457C27.9869 3.55187 29.2411 2.76663 30.6282 2.24205ZM23.5642 40.5002L23.5638 40.5002L23.5641 40.5002C23.5642 40.5002 23.5642 40.5002 23.5642 40.5002Z" stroke="black" stroke-width="3"/>
</svg>
