<svg width="162" height="64" viewBox="0 0 162 64" fill="none" xmlns="http://www.w3.org/2000/svg">
<mask id="path-1-outside-1_252_869" maskUnits="userSpaceOnUse" x="0" y="-1" width="162" height="65" fill="black">
<rect fill="white" y="-1" width="162" height="65"/>
<path fill-rule="evenodd" clip-rule="evenodd" d="M128.486 1.44942C127.946 1.68294 127.161 2.42096 126.743 3.08912L125.982 4.30457V31.5279C125.982 58.1854 125.995 58.7736 126.616 59.8197C126.965 60.4076 127.652 61.1866 128.144 61.5507C129.023 62.2015 129.293 62.2132 143.57 62.2132C157.683 62.2132 158.126 62.1949 158.963 61.5737C159.438 61.2218 160.09 60.4451 160.413 59.8474C160.971 58.8142 160.999 57.4367 160.999 31.6903C160.999 1.49852 161.126 3.24868 158.813 1.71442L157.737 1L143.602 1.01227C132.458 1.02203 129.26 1.11456 128.486 1.44942ZM3.48887 2.02284C0.777169 3.38086 0.948293 1.24705 1.04178 32.5303L1.12023 58.8057C1.12276 59.6531 1.45264 60.4668 2.04096 61.0767V61.0767C3.91922 63.0236 3.7183 63 18.4725 63C31.8785 63 31.9264 62.9978 33.2941 62.2793C34.1894 61.8094 34.8951 61.1255 35.3248 60.3123C35.9764 59.0786 35.983 58.7925 35.983 32C35.983 5.40483 35.9719 4.91481 35.3419 3.83249C34.9623 3.18007 34.1272 2.44205 33.2941 2.02284C31.9007 1.32133 31.7591 1.31472 18.3951 1.31472C5.03343 1.31472 4.88924 1.32164 3.48887 2.02284ZM129.892 3.79409C130.543 4.20386 130.217 5.54709 129.44 5.65724C128.489 5.79225 127.903 4.99318 128.348 4.16735C128.721 3.47654 129.202 3.36009 129.892 3.79409ZM158.452 3.97474C159.048 4.68884 158.723 5.56345 157.861 5.56345C156.861 5.56345 156.295 4.68979 156.858 4.01628C157.377 3.39502 157.955 3.37992 158.452 3.97474ZM5.05213 4.57932C5.58388 5.21568 5.13199 6.03553 4.24942 6.03553C3.42992 6.03553 2.99926 5.39413 3.29873 4.61929C3.5269 4.02856 4.57171 4.00464 5.05213 4.57932ZM33.548 5.17005C33.6376 5.943 33.5473 6.03553 32.7031 6.03553C31.6564 6.03553 31.3195 5.54614 31.7692 4.67877C32.2316 3.78748 33.4263 4.11731 33.548 5.17005ZM148.23 8.44252C150.413 9.53963 152.221 11.5507 153.097 13.8573C154.036 16.3285 153.855 19.9865 152.68 22.2635C151.7 24.1641 149.743 26.0005 147.728 26.9094C145.553 27.8913 141.122 27.869 139.072 26.866C137.077 25.8903 135.223 23.9894 134.154 21.8232C133.007 19.4993 132.921 15.8293 133.962 13.5504C135.191 10.8567 138.18 8.254 140.823 7.5764C142.771 7.07663 146.343 7.49426 148.23 8.44252ZM22.3351 8.5725C24.5496 9.39549 26.7419 11.4846 27.8007 13.7814C28.4253 15.1366 28.6062 16.0367 28.6062 17.7891C28.6062 20.6568 28.1173 22.2641 26.6618 24.1804C22.2417 30.0003 12.8602 29.3551 9.37272 22.9917C8.16344 20.7849 7.86745 16.9085 8.73227 14.6041C9.79166 11.782 12.1478 9.44553 15.0481 8.34118C16.6715 7.72306 20.3647 7.84014 22.3351 8.5725ZM141.79 8.83686C137.335 9.96073 134.711 13.1803 134.711 17.5228C134.711 20.0378 135.305 21.6334 136.924 23.4648C139.403 26.2689 143.705 27.1316 147.329 25.5517C152.683 23.2177 154.042 15.5121 149.836 11.3351C147.814 9.32688 144.243 8.21812 141.79 8.83686ZM46.5991 34.6402C46.5991 54.9718 46.6828 60.4457 46.9952 60.5615C47.6829 60.8161 114.558 60.784 114.973 60.5288C115.287 60.3365 115.353 54.901 115.289 34.6553L115.208 9.02538L80.9034 8.94544L46.5991 8.86519V34.6402ZM15.3846 9.74074C13.0418 10.508 10.6752 12.9572 9.97927 15.3346C8.94998 18.8513 9.81575 22.1137 12.3915 24.425C14.5211 26.3356 16.1597 26.9072 19.0346 26.742C21.0387 26.6268 21.7479 26.4338 23.0234 25.6568C24.8329 24.5546 26.4716 22.5618 26.9368 20.8982C28.9643 13.6486 22.5034 7.40866 15.3846 9.74074ZM146.736 11.8229C148.834 12.8533 150.071 14.9698 150.052 17.4983C150.026 20.9476 148.144 23.2319 144.697 23.9982C142.42 24.5043 140.716 23.9894 138.988 22.2729C137.361 20.6571 136.794 19.132 136.983 16.8745C137.281 13.3034 140.713 10.4986 144.204 10.9732C144.814 11.0563 145.953 11.4383 146.736 11.8229ZM20.8612 11.8745C25.3254 13.7264 26.4615 19.3806 23.0263 22.6509C19.9565 25.5731 15.7224 25.2363 13.1324 21.8635C11.3473 19.5396 11.3416 16.4559 13.1175 14.1481C14.9878 11.7178 18.206 10.773 20.8612 11.8745ZM49.8857 12.4011C50.1126 12.7586 50.0847 13.0525 49.7903 13.405C49.2791 14.0165 49.1032 14.0231 48.3275 13.4598C47.7257 13.023 47.7257 13.0063 48.323 12.3507C48.9898 11.6193 49.3973 11.6325 49.8857 12.4011ZM113.413 11.9768C114.049 12.3768 113.747 13.7462 113.024 13.7462C112.155 13.7462 111.65 12.8269 112.175 12.199C112.648 11.6325 112.818 11.602 113.413 11.9768ZM141.304 13.2622C137.905 15.0973 137.998 20.2527 141.46 21.8839C142.956 22.5892 144.169 22.5332 145.784 21.685C149.04 19.9748 149.182 15.7991 146.062 13.5045C144.841 12.6063 142.718 12.498 141.304 13.2622ZM15.8203 14.0417C12.0879 16.5604 13.4306 22.0498 17.9886 22.9052C19.3465 23.1601 21.4992 22.1093 22.4356 20.7339C23.3647 19.3696 23.4018 16.9951 22.5164 15.553C21.1094 13.2609 18.0126 12.5622 15.8203 14.0417ZM107.127 15.4205C107.127 15.5621 106.757 15.9977 106.305 16.388C105.853 16.7782 105.569 17.1826 105.675 17.2871C105.78 17.3916 106.266 17.0958 106.756 16.63C107.774 15.661 108.077 15.7941 108.077 17.2119C108.077 18.4916 107.134 19.3586 105.783 19.3205C103.894 19.2673 102.964 17.0932 104.275 15.7919C104.901 15.1697 107.127 14.8798 107.127 15.4205ZM58.7053 18.3883L58.7997 20.3553L60.9388 20.4485L63.0778 20.5413V21.7716V23.0018L60.9388 23.0947L58.7997 23.1878L58.7173 38.2157L58.6352 53.2436H57.4076C56.4024 53.2436 56.1454 53.1152 55.9888 52.5355C55.8839 52.1459 55.7958 45.3482 55.7936 37.4289L55.7892 23.0305H53.5709H51.3526V21.7716V20.5127H53.5709H55.7892V18.6769C55.7892 17.667 55.8842 16.7464 56.0005 16.6312C56.1165 16.5157 56.7516 16.4213 57.4114 16.4213H58.6111L58.7053 18.3883ZM70.3665 25.0761L70.5249 33.5736L72.6824 33.6671L74.8395 33.7605L74.7422 34.9108L74.6446 36.0615L72.5848 36.1106L70.5249 36.1597L70.4406 44.7018L70.3564 53.2436H68.9354H67.5144V44.7462V36.2487H65.349C64.1578 36.2487 63.1165 36.1823 63.0347 36.1011C62.953 36.0196 62.9447 35.4531 63.0167 34.8422L63.1472 33.731H65.3307H67.5144V25.0582V16.3851L68.8612 16.4821L70.208 16.5787L70.3665 25.0761ZM81.8417 19.1751L81.9333 21.9289L84.1516 22.0863L86.3699 22.2437L86.4675 23.4097L86.5648 24.5757L84.2492 24.6686L81.9333 24.7614L81.8509 39.0025L81.7685 53.2436H80.5041H79.2396V38.9377V24.6318L76.9421 24.5392C74.7416 24.4505 74.643 24.4136 74.605 23.6618C74.5324 22.2248 74.7476 22.0863 77.0553 22.0863H79.2396V19.2538V16.4213H80.4949H81.7501L81.8417 19.1751ZM93.5758 29.2462L93.6585 42.0711L95.8768 42.2284L98.0951 42.3858V43.4873V44.5888L95.8768 44.7462L93.6585 44.9035L93.5701 49.0736L93.4817 53.2436H92.2233H90.9649L90.8964 51.2766C90.8591 50.1949 90.8232 48.3183 90.8172 47.1066L90.8064 44.9035L88.649 44.8101L86.4919 44.7166L86.5892 43.5512L86.6868 42.3858L88.7466 42.2284L90.8064 42.0711L90.7494 39.7107C90.718 38.4124 90.7703 32.6411 90.8654 26.8858L91.0384 16.4213H92.2658H93.4931L93.5758 29.2462ZM107.431 21.5163C108.113 22.2424 108.303 23.799 107.752 24.1373C107.573 24.2475 107.157 24.008 106.828 23.6051C106.5 23.2026 106.124 22.9785 105.994 23.1072C105.864 23.236 105.994 23.601 106.283 23.9189C107.053 24.763 106.929 25.2341 105.938 25.2288C104.89 25.2228 104.486 24.982 104.005 24.0741C103.488 23.0991 103.549 22.6024 104.298 21.6567C105.124 20.6134 106.525 20.5505 107.431 21.5163ZM149.094 32.3232C150.128 32.8214 151.718 33.9679 152.627 34.8709C159.112 41.3116 157.297 51.8636 149.024 55.8228C145.329 57.5912 140.61 57.3788 136.817 55.2736C134.919 54.2205 132.6 51.6559 131.565 49.467C130.839 47.9321 130.747 47.3442 130.75 44.2741C130.754 40.1264 131.381 38.2227 133.548 35.7637C136.603 32.299 139.32 31.1458 144.045 31.3082C146.757 31.4014 147.486 31.5477 149.094 32.3232ZM23.6541 32.7777C29.7737 35.533 32.7668 42.1859 30.7586 48.5685C30.0326 50.8763 29.4768 51.7805 27.55 53.7887C24.921 56.5287 19.9597 58.1073 16.2646 57.3794C11.9228 56.524 8.4759 53.8476 6.57007 49.8519C5.64505 47.9126 5.56075 47.4736 5.56075 44.5888C5.56075 41.7201 5.64758 41.2607 6.54219 39.3959C9.76092 32.6877 17.1275 29.8385 23.6541 32.7777ZM141.489 33.3845C138.096 33.9538 135.041 36.3504 133.472 39.6729C132.775 41.1492 132.637 41.8841 132.637 44.1167C132.637 46.3409 132.776 47.0861 133.461 48.5373C133.915 49.4972 134.73 50.7847 135.272 51.3988C137.26 53.6471 142.065 55.4275 144.976 54.9941C146.905 54.7068 149.949 53.1816 151.329 51.8114C151.987 51.1586 152.951 49.7197 153.472 48.6141C154.356 46.7371 154.41 46.4114 154.282 43.7079C154.123 40.3511 153.529 38.9261 151.3 36.5594C148.975 34.0913 144.98 32.7984 141.489 33.3845ZM14.9343 34.2295C10.9604 35.6637 8.48794 38.516 7.62693 42.6593C6.67053 47.2608 9.04885 52.0005 13.4642 54.2913C15.2471 55.2166 15.6118 55.2881 18.5536 55.2887C21.5635 55.2893 21.8233 55.2349 23.7298 54.2086C25.9437 53.0164 27.5139 51.3298 28.6075 48.9697C29.1846 47.7244 29.3247 46.8671 29.3237 44.5888C29.3228 42.1368 29.2055 41.5184 28.4494 39.9857C27.4122 37.8821 24.9778 35.5183 22.9005 34.5974C20.9031 33.7118 16.8829 33.5264 14.9343 34.2295ZM147.161 36.1927C148.987 36.9952 150.991 39.0526 151.673 40.8254C152.473 42.9057 152.192 46.6814 151.11 48.3787C149.25 51.2987 146.793 52.6787 143.412 52.7011C141.023 52.7171 139.911 52.3146 137.803 50.6695C135.597 48.9474 134.239 44.7726 134.987 42.0119C135.76 39.1605 139.026 35.9611 141.625 35.5088C143.152 35.2432 145.722 35.5607 147.161 36.1927ZM21.0523 36.3793C26.008 37.8607 28.592 43.8621 26.2317 48.4089C23.0162 54.6032 14.4067 54.8708 10.8647 48.8863C10.0927 47.5824 9.99733 47.1101 9.9986 44.5888C9.99987 41.3887 10.3215 40.5484 12.2736 38.6422C14.8497 36.1266 17.7262 35.3851 21.0523 36.3793ZM140.656 38.7794C137.041 40.6756 136.308 45.448 139.203 48.2386C141.454 50.4086 144.584 50.6957 147.103 48.9631C150.709 46.4825 150.276 40.6954 146.343 38.8046C144.584 37.9589 142.24 37.9485 140.656 38.7794ZM16.0184 39.0485C13.4274 40.2397 12.2172 42.3782 12.4355 45.3785C12.5544 47.0097 12.7236 47.4279 13.6623 48.4073C16.6392 51.5152 21.2206 51.3959 23.3803 48.1546C25.5323 44.9249 24.5144 40.9327 21.1059 39.2332C19.2476 38.307 17.7496 38.2525 16.0184 39.0485ZM107.42 45.5755C108.252 46.6248 108.256 47.585 107.431 48.4634C106.607 49.3421 105.313 49.3439 104.374 48.4681C103.515 47.6658 103.425 46.4491 104.165 45.6365C104.965 44.7581 105.542 44.9202 105.542 46.0236C105.542 46.5854 105.674 46.9055 105.859 46.7919C106.033 46.6849 106.176 46.181 106.176 45.6718C106.176 44.5262 106.565 44.496 107.42 45.5755ZM49.9265 57.0203C49.9265 57.9594 48.8317 58.2678 48.1963 57.5075C47.8645 57.1106 47.8645 56.93 48.1963 56.5331C48.8317 55.7727 49.9265 56.0812 49.9265 57.0203ZM113.723 58.0431C113.81 58.7906 113.712 58.9086 113 58.9086C112.124 58.9086 111.689 58.2823 112.003 57.4703C112.332 56.6203 113.608 57.0452 113.723 58.0431ZM130.102 58.7513C130.102 59.5472 129.978 59.6954 129.314 59.6954C128.806 59.6954 128.487 59.4934 128.416 59.1264C128.231 58.1715 128.623 57.5984 129.388 57.7064C129.948 57.7854 130.102 58.011 130.102 58.7513ZM158.608 58.2348C159.036 59.572 157.764 60.4385 156.897 59.4008C156.616 59.0653 156.609 58.7815 156.869 58.2993C157.305 57.4905 158.358 57.4515 158.608 58.2348ZM5.05213 58.7113C5.79272 59.5975 4.5115 60.87 3.61911 60.1345C3.1612 59.7571 3.03729 58.8447 3.39538 58.4891C3.75348 58.1335 4.67217 58.2565 5.05213 58.7113ZM33.5442 59.2608C33.6145 59.8638 33.4725 60.1288 33.0162 60.2474C32.3006 60.4331 31.7049 59.9632 31.7049 59.213C31.7049 57.9308 33.3939 57.9748 33.5442 59.2608Z"/>
</mask>
<path fill-rule="evenodd" clip-rule="evenodd" d="M128.486 1.44942C127.946 1.68294 127.161 2.42096 126.743 3.08912L125.982 4.30457V31.5279C125.982 58.1854 125.995 58.7736 126.616 59.8197C126.965 60.4076 127.652 61.1866 128.144 61.5507C129.023 62.2015 129.293 62.2132 143.57 62.2132C157.683 62.2132 158.126 62.1949 158.963 61.5737C159.438 61.2218 160.09 60.4451 160.413 59.8474C160.971 58.8142 160.999 57.4367 160.999 31.6903C160.999 1.49852 161.126 3.24868 158.813 1.71442L157.737 1L143.602 1.01227C132.458 1.02203 129.26 1.11456 128.486 1.44942ZM3.48887 2.02284C0.777169 3.38086 0.948293 1.24705 1.04178 32.5303L1.12023 58.8057C1.12276 59.6531 1.45264 60.4668 2.04096 61.0767V61.0767C3.91922 63.0236 3.7183 63 18.4725 63C31.8785 63 31.9264 62.9978 33.2941 62.2793C34.1894 61.8094 34.8951 61.1255 35.3248 60.3123C35.9764 59.0786 35.983 58.7925 35.983 32C35.983 5.40483 35.9719 4.91481 35.3419 3.83249C34.9623 3.18007 34.1272 2.44205 33.2941 2.02284C31.9007 1.32133 31.7591 1.31472 18.3951 1.31472C5.03343 1.31472 4.88924 1.32164 3.48887 2.02284ZM129.892 3.79409C130.543 4.20386 130.217 5.54709 129.44 5.65724C128.489 5.79225 127.903 4.99318 128.348 4.16735C128.721 3.47654 129.202 3.36009 129.892 3.79409ZM158.452 3.97474C159.048 4.68884 158.723 5.56345 157.861 5.56345C156.861 5.56345 156.295 4.68979 156.858 4.01628C157.377 3.39502 157.955 3.37992 158.452 3.97474ZM5.05213 4.57932C5.58388 5.21568 5.13199 6.03553 4.24942 6.03553C3.42992 6.03553 2.99926 5.39413 3.29873 4.61929C3.5269 4.02856 4.57171 4.00464 5.05213 4.57932ZM33.548 5.17005C33.6376 5.943 33.5473 6.03553 32.7031 6.03553C31.6564 6.03553 31.3195 5.54614 31.7692 4.67877C32.2316 3.78748 33.4263 4.11731 33.548 5.17005ZM148.23 8.44252C150.413 9.53963 152.221 11.5507 153.097 13.8573C154.036 16.3285 153.855 19.9865 152.68 22.2635C151.7 24.1641 149.743 26.0005 147.728 26.9094C145.553 27.8913 141.122 27.869 139.072 26.866C137.077 25.8903 135.223 23.9894 134.154 21.8232C133.007 19.4993 132.921 15.8293 133.962 13.5504C135.191 10.8567 138.18 8.254 140.823 7.5764C142.771 7.07663 146.343 7.49426 148.23 8.44252ZM22.3351 8.5725C24.5496 9.39549 26.7419 11.4846 27.8007 13.7814C28.4253 15.1366 28.6062 16.0367 28.6062 17.7891C28.6062 20.6568 28.1173 22.2641 26.6618 24.1804C22.2417 30.0003 12.8602 29.3551 9.37272 22.9917C8.16344 20.7849 7.86745 16.9085 8.73227 14.6041C9.79166 11.782 12.1478 9.44553 15.0481 8.34118C16.6715 7.72306 20.3647 7.84014 22.3351 8.5725ZM141.79 8.83686C137.335 9.96073 134.711 13.1803 134.711 17.5228C134.711 20.0378 135.305 21.6334 136.924 23.4648C139.403 26.2689 143.705 27.1316 147.329 25.5517C152.683 23.2177 154.042 15.5121 149.836 11.3351C147.814 9.32688 144.243 8.21812 141.79 8.83686ZM46.5991 34.6402C46.5991 54.9718 46.6828 60.4457 46.9952 60.5615C47.6829 60.8161 114.558 60.784 114.973 60.5288C115.287 60.3365 115.353 54.901 115.289 34.6553L115.208 9.02538L80.9034 8.94544L46.5991 8.86519V34.6402ZM15.3846 9.74074C13.0418 10.508 10.6752 12.9572 9.97927 15.3346C8.94998 18.8513 9.81575 22.1137 12.3915 24.425C14.5211 26.3356 16.1597 26.9072 19.0346 26.742C21.0387 26.6268 21.7479 26.4338 23.0234 25.6568C24.8329 24.5546 26.4716 22.5618 26.9368 20.8982C28.9643 13.6486 22.5034 7.40866 15.3846 9.74074ZM146.736 11.8229C148.834 12.8533 150.071 14.9698 150.052 17.4983C150.026 20.9476 148.144 23.2319 144.697 23.9982C142.42 24.5043 140.716 23.9894 138.988 22.2729C137.361 20.6571 136.794 19.132 136.983 16.8745C137.281 13.3034 140.713 10.4986 144.204 10.9732C144.814 11.0563 145.953 11.4383 146.736 11.8229ZM20.8612 11.8745C25.3254 13.7264 26.4615 19.3806 23.0263 22.6509C19.9565 25.5731 15.7224 25.2363 13.1324 21.8635C11.3473 19.5396 11.3416 16.4559 13.1175 14.1481C14.9878 11.7178 18.206 10.773 20.8612 11.8745ZM49.8857 12.4011C50.1126 12.7586 50.0847 13.0525 49.7903 13.405C49.2791 14.0165 49.1032 14.0231 48.3275 13.4598C47.7257 13.023 47.7257 13.0063 48.323 12.3507C48.9898 11.6193 49.3973 11.6325 49.8857 12.4011ZM113.413 11.9768C114.049 12.3768 113.747 13.7462 113.024 13.7462C112.155 13.7462 111.65 12.8269 112.175 12.199C112.648 11.6325 112.818 11.602 113.413 11.9768ZM141.304 13.2622C137.905 15.0973 137.998 20.2527 141.46 21.8839C142.956 22.5892 144.169 22.5332 145.784 21.685C149.04 19.9748 149.182 15.7991 146.062 13.5045C144.841 12.6063 142.718 12.498 141.304 13.2622ZM15.8203 14.0417C12.0879 16.5604 13.4306 22.0498 17.9886 22.9052C19.3465 23.1601 21.4992 22.1093 22.4356 20.7339C23.3647 19.3696 23.4018 16.9951 22.5164 15.553C21.1094 13.2609 18.0126 12.5622 15.8203 14.0417ZM107.127 15.4205C107.127 15.5621 106.757 15.9977 106.305 16.388C105.853 16.7782 105.569 17.1826 105.675 17.2871C105.78 17.3916 106.266 17.0958 106.756 16.63C107.774 15.661 108.077 15.7941 108.077 17.2119C108.077 18.4916 107.134 19.3586 105.783 19.3205C103.894 19.2673 102.964 17.0932 104.275 15.7919C104.901 15.1697 107.127 14.8798 107.127 15.4205ZM58.7053 18.3883L58.7997 20.3553L60.9388 20.4485L63.0778 20.5413V21.7716V23.0018L60.9388 23.0947L58.7997 23.1878L58.7173 38.2157L58.6352 53.2436H57.4076C56.4024 53.2436 56.1454 53.1152 55.9888 52.5355C55.8839 52.1459 55.7958 45.3482 55.7936 37.4289L55.7892 23.0305H53.5709H51.3526V21.7716V20.5127H53.5709H55.7892V18.6769C55.7892 17.667 55.8842 16.7464 56.0005 16.6312C56.1165 16.5157 56.7516 16.4213 57.4114 16.4213H58.6111L58.7053 18.3883ZM70.3665 25.0761L70.5249 33.5736L72.6824 33.6671L74.8395 33.7605L74.7422 34.9108L74.6446 36.0615L72.5848 36.1106L70.5249 36.1597L70.4406 44.7018L70.3564 53.2436H68.9354H67.5144V44.7462V36.2487H65.349C64.1578 36.2487 63.1165 36.1823 63.0347 36.1011C62.953 36.0196 62.9447 35.4531 63.0167 34.8422L63.1472 33.731H65.3307H67.5144V25.0582V16.3851L68.8612 16.4821L70.208 16.5787L70.3665 25.0761ZM81.8417 19.1751L81.9333 21.9289L84.1516 22.0863L86.3699 22.2437L86.4675 23.4097L86.5648 24.5757L84.2492 24.6686L81.9333 24.7614L81.8509 39.0025L81.7685 53.2436H80.5041H79.2396V38.9377V24.6318L76.9421 24.5392C74.7416 24.4505 74.643 24.4136 74.605 23.6618C74.5324 22.2248 74.7476 22.0863 77.0553 22.0863H79.2396V19.2538V16.4213H80.4949H81.7501L81.8417 19.1751ZM93.5758 29.2462L93.6585 42.0711L95.8768 42.2284L98.0951 42.3858V43.4873V44.5888L95.8768 44.7462L93.6585 44.9035L93.5701 49.0736L93.4817 53.2436H92.2233H90.9649L90.8964 51.2766C90.8591 50.1949 90.8232 48.3183 90.8172 47.1066L90.8064 44.9035L88.649 44.8101L86.4919 44.7166L86.5892 43.5512L86.6868 42.3858L88.7466 42.2284L90.8064 42.0711L90.7494 39.7107C90.718 38.4124 90.7703 32.6411 90.8654 26.8858L91.0384 16.4213H92.2658H93.4931L93.5758 29.2462ZM107.431 21.5163C108.113 22.2424 108.303 23.799 107.752 24.1373C107.573 24.2475 107.157 24.008 106.828 23.6051C106.5 23.2026 106.124 22.9785 105.994 23.1072C105.864 23.236 105.994 23.601 106.283 23.9189C107.053 24.763 106.929 25.2341 105.938 25.2288C104.89 25.2228 104.486 24.982 104.005 24.0741C103.488 23.0991 103.549 22.6024 104.298 21.6567C105.124 20.6134 106.525 20.5505 107.431 21.5163ZM149.094 32.3232C150.128 32.8214 151.718 33.9679 152.627 34.8709C159.112 41.3116 157.297 51.8636 149.024 55.8228C145.329 57.5912 140.61 57.3788 136.817 55.2736C134.919 54.2205 132.6 51.6559 131.565 49.467C130.839 47.9321 130.747 47.3442 130.75 44.2741C130.754 40.1264 131.381 38.2227 133.548 35.7637C136.603 32.299 139.32 31.1458 144.045 31.3082C146.757 31.4014 147.486 31.5477 149.094 32.3232ZM23.6541 32.7777C29.7737 35.533 32.7668 42.1859 30.7586 48.5685C30.0326 50.8763 29.4768 51.7805 27.55 53.7887C24.921 56.5287 19.9597 58.1073 16.2646 57.3794C11.9228 56.524 8.4759 53.8476 6.57007 49.8519C5.64505 47.9126 5.56075 47.4736 5.56075 44.5888C5.56075 41.7201 5.64758 41.2607 6.54219 39.3959C9.76092 32.6877 17.1275 29.8385 23.6541 32.7777ZM141.489 33.3845C138.096 33.9538 135.041 36.3504 133.472 39.6729C132.775 41.1492 132.637 41.8841 132.637 44.1167C132.637 46.3409 132.776 47.0861 133.461 48.5373C133.915 49.4972 134.73 50.7847 135.272 51.3988C137.26 53.6471 142.065 55.4275 144.976 54.9941C146.905 54.7068 149.949 53.1816 151.329 51.8114C151.987 51.1586 152.951 49.7197 153.472 48.6141C154.356 46.7371 154.41 46.4114 154.282 43.7079C154.123 40.3511 153.529 38.9261 151.3 36.5594C148.975 34.0913 144.98 32.7984 141.489 33.3845ZM14.9343 34.2295C10.9604 35.6637 8.48794 38.516 7.62693 42.6593C6.67053 47.2608 9.04885 52.0005 13.4642 54.2913C15.2471 55.2166 15.6118 55.2881 18.5536 55.2887C21.5635 55.2893 21.8233 55.2349 23.7298 54.2086C25.9437 53.0164 27.5139 51.3298 28.6075 48.9697C29.1846 47.7244 29.3247 46.8671 29.3237 44.5888C29.3228 42.1368 29.2055 41.5184 28.4494 39.9857C27.4122 37.8821 24.9778 35.5183 22.9005 34.5974C20.9031 33.7118 16.8829 33.5264 14.9343 34.2295ZM147.161 36.1927C148.987 36.9952 150.991 39.0526 151.673 40.8254C152.473 42.9057 152.192 46.6814 151.11 48.3787C149.25 51.2987 146.793 52.6787 143.412 52.7011C141.023 52.7171 139.911 52.3146 137.803 50.6695C135.597 48.9474 134.239 44.7726 134.987 42.0119C135.76 39.1605 139.026 35.9611 141.625 35.5088C143.152 35.2432 145.722 35.5607 147.161 36.1927ZM21.0523 36.3793C26.008 37.8607 28.592 43.8621 26.2317 48.4089C23.0162 54.6032 14.4067 54.8708 10.8647 48.8863C10.0927 47.5824 9.99733 47.1101 9.9986 44.5888C9.99987 41.3887 10.3215 40.5484 12.2736 38.6422C14.8497 36.1266 17.7262 35.3851 21.0523 36.3793ZM140.656 38.7794C137.041 40.6756 136.308 45.448 139.203 48.2386C141.454 50.4086 144.584 50.6957 147.103 48.9631C150.709 46.4825 150.276 40.6954 146.343 38.8046C144.584 37.9589 142.24 37.9485 140.656 38.7794ZM16.0184 39.0485C13.4274 40.2397 12.2172 42.3782 12.4355 45.3785C12.5544 47.0097 12.7236 47.4279 13.6623 48.4073C16.6392 51.5152 21.2206 51.3959 23.3803 48.1546C25.5323 44.9249 24.5144 40.9327 21.1059 39.2332C19.2476 38.307 17.7496 38.2525 16.0184 39.0485ZM107.42 45.5755C108.252 46.6248 108.256 47.585 107.431 48.4634C106.607 49.3421 105.313 49.3439 104.374 48.4681C103.515 47.6658 103.425 46.4491 104.165 45.6365C104.965 44.7581 105.542 44.9202 105.542 46.0236C105.542 46.5854 105.674 46.9055 105.859 46.7919C106.033 46.6849 106.176 46.181 106.176 45.6718C106.176 44.5262 106.565 44.496 107.42 45.5755ZM49.9265 57.0203C49.9265 57.9594 48.8317 58.2678 48.1963 57.5075C47.8645 57.1106 47.8645 56.93 48.1963 56.5331C48.8317 55.7727 49.9265 56.0812 49.9265 57.0203ZM113.723 58.0431C113.81 58.7906 113.712 58.9086 113 58.9086C112.124 58.9086 111.689 58.2823 112.003 57.4703C112.332 56.6203 113.608 57.0452 113.723 58.0431ZM130.102 58.7513C130.102 59.5472 129.978 59.6954 129.314 59.6954C128.806 59.6954 128.487 59.4934 128.416 59.1264C128.231 58.1715 128.623 57.5984 129.388 57.7064C129.948 57.7854 130.102 58.011 130.102 58.7513ZM158.608 58.2348C159.036 59.572 157.764 60.4385 156.897 59.4008C156.616 59.0653 156.609 58.7815 156.869 58.2993C157.305 57.4905 158.358 57.4515 158.608 58.2348ZM5.05213 58.7113C5.79272 59.5975 4.5115 60.87 3.61911 60.1345C3.1612 59.7571 3.03729 58.8447 3.39538 58.4891C3.75348 58.1335 4.67217 58.2565 5.05213 58.7113ZM33.5442 59.2608C33.6145 59.8638 33.4725 60.1288 33.0162 60.2474C32.3006 60.4331 31.7049 59.9632 31.7049 59.213C31.7049 57.9308 33.3939 57.9748 33.5442 59.2608Z" fill="#2F2F2F"/>
<path fill-rule="evenodd" clip-rule="evenodd" d="M128.486 1.44942C127.946 1.68294 127.161 2.42096 126.743 3.08912L125.982 4.30457V31.5279C125.982 58.1854 125.995 58.7736 126.616 59.8197C126.965 60.4076 127.652 61.1866 128.144 61.5507C129.023 62.2015 129.293 62.2132 143.57 62.2132C157.683 62.2132 158.126 62.1949 158.963 61.5737C159.438 61.2218 160.09 60.4451 160.413 59.8474C160.971 58.8142 160.999 57.4367 160.999 31.6903C160.999 1.49852 161.126 3.24868 158.813 1.71442L157.737 1L143.602 1.01227C132.458 1.02203 129.26 1.11456 128.486 1.44942ZM3.48887 2.02284C0.777169 3.38086 0.948293 1.24705 1.04178 32.5303L1.12023 58.8057C1.12276 59.6531 1.45264 60.4668 2.04096 61.0767V61.0767C3.91922 63.0236 3.7183 63 18.4725 63C31.8785 63 31.9264 62.9978 33.2941 62.2793C34.1894 61.8094 34.8951 61.1255 35.3248 60.3123C35.9764 59.0786 35.983 58.7925 35.983 32C35.983 5.40483 35.9719 4.91481 35.3419 3.83249C34.9623 3.18007 34.1272 2.44205 33.2941 2.02284C31.9007 1.32133 31.7591 1.31472 18.3951 1.31472C5.03343 1.31472 4.88924 1.32164 3.48887 2.02284ZM129.892 3.79409C130.543 4.20386 130.217 5.54709 129.44 5.65724C128.489 5.79225 127.903 4.99318 128.348 4.16735C128.721 3.47654 129.202 3.36009 129.892 3.79409ZM158.452 3.97474C159.048 4.68884 158.723 5.56345 157.861 5.56345C156.861 5.56345 156.295 4.68979 156.858 4.01628C157.377 3.39502 157.955 3.37992 158.452 3.97474ZM5.05213 4.57932C5.58388 5.21568 5.13199 6.03553 4.24942 6.03553C3.42992 6.03553 2.99926 5.39413 3.29873 4.61929C3.5269 4.02856 4.57171 4.00464 5.05213 4.57932ZM33.548 5.17005C33.6376 5.943 33.5473 6.03553 32.7031 6.03553C31.6564 6.03553 31.3195 5.54614 31.7692 4.67877C32.2316 3.78748 33.4263 4.11731 33.548 5.17005ZM148.23 8.44252C150.413 9.53963 152.221 11.5507 153.097 13.8573C154.036 16.3285 153.855 19.9865 152.68 22.2635C151.7 24.1641 149.743 26.0005 147.728 26.9094C145.553 27.8913 141.122 27.869 139.072 26.866C137.077 25.8903 135.223 23.9894 134.154 21.8232C133.007 19.4993 132.921 15.8293 133.962 13.5504C135.191 10.8567 138.18 8.254 140.823 7.5764C142.771 7.07663 146.343 7.49426 148.23 8.44252ZM22.3351 8.5725C24.5496 9.39549 26.7419 11.4846 27.8007 13.7814C28.4253 15.1366 28.6062 16.0367 28.6062 17.7891C28.6062 20.6568 28.1173 22.2641 26.6618 24.1804C22.2417 30.0003 12.8602 29.3551 9.37272 22.9917C8.16344 20.7849 7.86745 16.9085 8.73227 14.6041C9.79166 11.782 12.1478 9.44553 15.0481 8.34118C16.6715 7.72306 20.3647 7.84014 22.3351 8.5725ZM141.79 8.83686C137.335 9.96073 134.711 13.1803 134.711 17.5228C134.711 20.0378 135.305 21.6334 136.924 23.4648C139.403 26.2689 143.705 27.1316 147.329 25.5517C152.683 23.2177 154.042 15.5121 149.836 11.3351C147.814 9.32688 144.243 8.21812 141.79 8.83686ZM46.5991 34.6402C46.5991 54.9718 46.6828 60.4457 46.9952 60.5615C47.6829 60.8161 114.558 60.784 114.973 60.5288C115.287 60.3365 115.353 54.901 115.289 34.6553L115.208 9.02538L80.9034 8.94544L46.5991 8.86519V34.6402ZM15.3846 9.74074C13.0418 10.508 10.6752 12.9572 9.97927 15.3346C8.94998 18.8513 9.81575 22.1137 12.3915 24.425C14.5211 26.3356 16.1597 26.9072 19.0346 26.742C21.0387 26.6268 21.7479 26.4338 23.0234 25.6568C24.8329 24.5546 26.4716 22.5618 26.9368 20.8982C28.9643 13.6486 22.5034 7.40866 15.3846 9.74074ZM146.736 11.8229C148.834 12.8533 150.071 14.9698 150.052 17.4983C150.026 20.9476 148.144 23.2319 144.697 23.9982C142.42 24.5043 140.716 23.9894 138.988 22.2729C137.361 20.6571 136.794 19.132 136.983 16.8745C137.281 13.3034 140.713 10.4986 144.204 10.9732C144.814 11.0563 145.953 11.4383 146.736 11.8229ZM20.8612 11.8745C25.3254 13.7264 26.4615 19.3806 23.0263 22.6509C19.9565 25.5731 15.7224 25.2363 13.1324 21.8635C11.3473 19.5396 11.3416 16.4559 13.1175 14.1481C14.9878 11.7178 18.206 10.773 20.8612 11.8745ZM49.8857 12.4011C50.1126 12.7586 50.0847 13.0525 49.7903 13.405C49.2791 14.0165 49.1032 14.0231 48.3275 13.4598C47.7257 13.023 47.7257 13.0063 48.323 12.3507C48.9898 11.6193 49.3973 11.6325 49.8857 12.4011ZM113.413 11.9768C114.049 12.3768 113.747 13.7462 113.024 13.7462C112.155 13.7462 111.65 12.8269 112.175 12.199C112.648 11.6325 112.818 11.602 113.413 11.9768ZM141.304 13.2622C137.905 15.0973 137.998 20.2527 141.46 21.8839C142.956 22.5892 144.169 22.5332 145.784 21.685C149.04 19.9748 149.182 15.7991 146.062 13.5045C144.841 12.6063 142.718 12.498 141.304 13.2622ZM15.8203 14.0417C12.0879 16.5604 13.4306 22.0498 17.9886 22.9052C19.3465 23.1601 21.4992 22.1093 22.4356 20.7339C23.3647 19.3696 23.4018 16.9951 22.5164 15.553C21.1094 13.2609 18.0126 12.5622 15.8203 14.0417ZM107.127 15.4205C107.127 15.5621 106.757 15.9977 106.305 16.388C105.853 16.7782 105.569 17.1826 105.675 17.2871C105.78 17.3916 106.266 17.0958 106.756 16.63C107.774 15.661 108.077 15.7941 108.077 17.2119C108.077 18.4916 107.134 19.3586 105.783 19.3205C103.894 19.2673 102.964 17.0932 104.275 15.7919C104.901 15.1697 107.127 14.8798 107.127 15.4205ZM58.7053 18.3883L58.7997 20.3553L60.9388 20.4485L63.0778 20.5413V21.7716V23.0018L60.9388 23.0947L58.7997 23.1878L58.7173 38.2157L58.6352 53.2436H57.4076C56.4024 53.2436 56.1454 53.1152 55.9888 52.5355C55.8839 52.1459 55.7958 45.3482 55.7936 37.4289L55.7892 23.0305H53.5709H51.3526V21.7716V20.5127H53.5709H55.7892V18.6769C55.7892 17.667 55.8842 16.7464 56.0005 16.6312C56.1165 16.5157 56.7516 16.4213 57.4114 16.4213H58.6111L58.7053 18.3883ZM70.3665 25.0761L70.5249 33.5736L72.6824 33.6671L74.8395 33.7605L74.7422 34.9108L74.6446 36.0615L72.5848 36.1106L70.5249 36.1597L70.4406 44.7018L70.3564 53.2436H68.9354H67.5144V44.7462V36.2487H65.349C64.1578 36.2487 63.1165 36.1823 63.0347 36.1011C62.953 36.0196 62.9447 35.4531 63.0167 34.8422L63.1472 33.731H65.3307H67.5144V25.0582V16.3851L68.8612 16.4821L70.208 16.5787L70.3665 25.0761ZM81.8417 19.1751L81.9333 21.9289L84.1516 22.0863L86.3699 22.2437L86.4675 23.4097L86.5648 24.5757L84.2492 24.6686L81.9333 24.7614L81.8509 39.0025L81.7685 53.2436H80.5041H79.2396V38.9377V24.6318L76.9421 24.5392C74.7416 24.4505 74.643 24.4136 74.605 23.6618C74.5324 22.2248 74.7476 22.0863 77.0553 22.0863H79.2396V19.2538V16.4213H80.4949H81.7501L81.8417 19.1751ZM93.5758 29.2462L93.6585 42.0711L95.8768 42.2284L98.0951 42.3858V43.4873V44.5888L95.8768 44.7462L93.6585 44.9035L93.5701 49.0736L93.4817 53.2436H92.2233H90.9649L90.8964 51.2766C90.8591 50.1949 90.8232 48.3183 90.8172 47.1066L90.8064 44.9035L88.649 44.8101L86.4919 44.7166L86.5892 43.5512L86.6868 42.3858L88.7466 42.2284L90.8064 42.0711L90.7494 39.7107C90.718 38.4124 90.7703 32.6411 90.8654 26.8858L91.0384 16.4213H92.2658H93.4931L93.5758 29.2462ZM107.431 21.5163C108.113 22.2424 108.303 23.799 107.752 24.1373C107.573 24.2475 107.157 24.008 106.828 23.6051C106.5 23.2026 106.124 22.9785 105.994 23.1072C105.864 23.236 105.994 23.601 106.283 23.9189C107.053 24.763 106.929 25.2341 105.938 25.2288C104.89 25.2228 104.486 24.982 104.005 24.0741C103.488 23.0991 103.549 22.6024 104.298 21.6567C105.124 20.6134 106.525 20.5505 107.431 21.5163ZM149.094 32.3232C150.128 32.8214 151.718 33.9679 152.627 34.8709C159.112 41.3116 157.297 51.8636 149.024 55.8228C145.329 57.5912 140.61 57.3788 136.817 55.2736C134.919 54.2205 132.6 51.6559 131.565 49.467C130.839 47.9321 130.747 47.3442 130.75 44.2741C130.754 40.1264 131.381 38.2227 133.548 35.7637C136.603 32.299 139.32 31.1458 144.045 31.3082C146.757 31.4014 147.486 31.5477 149.094 32.3232ZM23.6541 32.7777C29.7737 35.533 32.7668 42.1859 30.7586 48.5685C30.0326 50.8763 29.4768 51.7805 27.55 53.7887C24.921 56.5287 19.9597 58.1073 16.2646 57.3794C11.9228 56.524 8.4759 53.8476 6.57007 49.8519C5.64505 47.9126 5.56075 47.4736 5.56075 44.5888C5.56075 41.7201 5.64758 41.2607 6.54219 39.3959C9.76092 32.6877 17.1275 29.8385 23.6541 32.7777ZM141.489 33.3845C138.096 33.9538 135.041 36.3504 133.472 39.6729C132.775 41.1492 132.637 41.8841 132.637 44.1167C132.637 46.3409 132.776 47.0861 133.461 48.5373C133.915 49.4972 134.73 50.7847 135.272 51.3988C137.26 53.6471 142.065 55.4275 144.976 54.9941C146.905 54.7068 149.949 53.1816 151.329 51.8114C151.987 51.1586 152.951 49.7197 153.472 48.6141C154.356 46.7371 154.41 46.4114 154.282 43.7079C154.123 40.3511 153.529 38.9261 151.3 36.5594C148.975 34.0913 144.98 32.7984 141.489 33.3845ZM14.9343 34.2295C10.9604 35.6637 8.48794 38.516 7.62693 42.6593C6.67053 47.2608 9.04885 52.0005 13.4642 54.2913C15.2471 55.2166 15.6118 55.2881 18.5536 55.2887C21.5635 55.2893 21.8233 55.2349 23.7298 54.2086C25.9437 53.0164 27.5139 51.3298 28.6075 48.9697C29.1846 47.7244 29.3247 46.8671 29.3237 44.5888C29.3228 42.1368 29.2055 41.5184 28.4494 39.9857C27.4122 37.8821 24.9778 35.5183 22.9005 34.5974C20.9031 33.7118 16.8829 33.5264 14.9343 34.2295ZM147.161 36.1927C148.987 36.9952 150.991 39.0526 151.673 40.8254C152.473 42.9057 152.192 46.6814 151.11 48.3787C149.25 51.2987 146.793 52.6787 143.412 52.7011C141.023 52.7171 139.911 52.3146 137.803 50.6695C135.597 48.9474 134.239 44.7726 134.987 42.0119C135.76 39.1605 139.026 35.9611 141.625 35.5088C143.152 35.2432 145.722 35.5607 147.161 36.1927ZM21.0523 36.3793C26.008 37.8607 28.592 43.8621 26.2317 48.4089C23.0162 54.6032 14.4067 54.8708 10.8647 48.8863C10.0927 47.5824 9.99733 47.1101 9.9986 44.5888C9.99987 41.3887 10.3215 40.5484 12.2736 38.6422C14.8497 36.1266 17.7262 35.3851 21.0523 36.3793ZM140.656 38.7794C137.041 40.6756 136.308 45.448 139.203 48.2386C141.454 50.4086 144.584 50.6957 147.103 48.9631C150.709 46.4825 150.276 40.6954 146.343 38.8046C144.584 37.9589 142.24 37.9485 140.656 38.7794ZM16.0184 39.0485C13.4274 40.2397 12.2172 42.3782 12.4355 45.3785C12.5544 47.0097 12.7236 47.4279 13.6623 48.4073C16.6392 51.5152 21.2206 51.3959 23.3803 48.1546C25.5323 44.9249 24.5144 40.9327 21.1059 39.2332C19.2476 38.307 17.7496 38.2525 16.0184 39.0485ZM107.42 45.5755C108.252 46.6248 108.256 47.585 107.431 48.4634C106.607 49.3421 105.313 49.3439 104.374 48.4681C103.515 47.6658 103.425 46.4491 104.165 45.6365C104.965 44.7581 105.542 44.9202 105.542 46.0236C105.542 46.5854 105.674 46.9055 105.859 46.7919C106.033 46.6849 106.176 46.181 106.176 45.6718C106.176 44.5262 106.565 44.496 107.42 45.5755ZM49.9265 57.0203C49.9265 57.9594 48.8317 58.2678 48.1963 57.5075C47.8645 57.1106 47.8645 56.93 48.1963 56.5331C48.8317 55.7727 49.9265 56.0812 49.9265 57.0203ZM113.723 58.0431C113.81 58.7906 113.712 58.9086 113 58.9086C112.124 58.9086 111.689 58.2823 112.003 57.4703C112.332 56.6203 113.608 57.0452 113.723 58.0431ZM130.102 58.7513C130.102 59.5472 129.978 59.6954 129.314 59.6954C128.806 59.6954 128.487 59.4934 128.416 59.1264C128.231 58.1715 128.623 57.5984 129.388 57.7064C129.948 57.7854 130.102 58.011 130.102 58.7513ZM158.608 58.2348C159.036 59.572 157.764 60.4385 156.897 59.4008C156.616 59.0653 156.609 58.7815 156.869 58.2993C157.305 57.4905 158.358 57.4515 158.608 58.2348ZM5.05213 58.7113C5.79272 59.5975 4.5115 60.87 3.61911 60.1345C3.1612 59.7571 3.03729 58.8447 3.39538 58.4891C3.75348 58.1335 4.67217 58.2565 5.05213 58.7113ZM33.5442 59.2608C33.6145 59.8638 33.4725 60.1288 33.0162 60.2474C32.3006 60.4331 31.7049 59.9632 31.7049 59.213C31.7049 57.9308 33.3939 57.9748 33.5442 59.2608Z" stroke="white" stroke-width="2" mask="url(#path-1-outside-1_252_869)"/>
</svg>
